# xmcd CD database file
# Copyright (C) 1997 Ti Kan
#
# Track frame offsets:
#  187
#  21490
#  34980
#  54137
#  68805
#  83970
#  101492
#  117687
#  131672
#  145415
#
# Disc length: 2145 seconds
#
# Revision: 1
# Processed by: cddbd v1.4b41PL1 Copyright (c) Steve Scherf et al.
# Submitted via: CDWizzard Release:4.23
#
DISCID=91085f0a
DTITLE=Oak Ridge Boys - Christmas Again
DYEAR=1900
DGENRE=
TTITLE0=The Voices of Rejoicing Love (intro: Joy To the World)
TTITLE1=First Christmas Day (intro: The First Noel)
TTITLE2=There's a New Kid in Town (intro: Away in a Manger)
TTITLE3=First Christmas Gift (intro: God Rest Ye Merry Gentlemen)
TTITLE4=The King is Born (intro: What Child Is This?)
TTITLE5=When You Give it Away
TTITLE6=Christmas Again
TTITLE7=Santa Bring Your Elves
TTITLE8=That's What I Like About Christmas
TTITLE9=It's Christmas Once Again
EXTD=1986 MCA Records.
EXTT0=
EXTT1=
EXTT2=
EXTT3=
EXTT4=
EXTT5=
EXTT6=
EXTT7=
EXTT8=
EXTT9=
PLAYORDER=
